<?xml version="1.0" encoding="UTF-8" standalone="no"?><!-- Generator: Gravit.io -->
<svg xmlns="http://www.w3.org/2000/svg"
  xmlns:xlink="http://www.w3.org/1999/xlink" style="isolation:isolate" viewBox="0 0 155.4 77.15" width="155.4pt" height="77.15pt">
  <defs>
    <clipPath id="_clipPath_atXlP48qYK84KJf9nYOuL3685bafM1LR">
      <rect width="155.4" height="77.15"/>
    </clipPath>
  </defs>
  <g clip-path="url(#_clipPath_atXlP48qYK84KJf9nYOuL3685bafM1LR)">
    <g>
      <path d=" M 94.02 55.08 L 94.69 55.08 C 94.69 50.61 92.86 46.56 89.9 43.64 C 86.94 40.71 82.85 38.9 78.34 38.9 C 73.83 38.9 69.74 40.71 66.78 43.64 C 63.82 46.57 61.99 50.61 61.99 55.08 C 61.99 59.55 63.82 63.6 66.78 66.52 C 69.74 69.45 73.83 71.26 78.34 71.26 C 82.85 71.26 86.94 69.45 89.9 66.52 C 92.86 63.59 94.69 59.55 94.69 55.08 L 94.02 55.08 L 93.35 55.08 C 93.35 59.18 91.67 62.89 88.95 65.58 C 86.23 68.27 82.48 69.93 78.33 69.93 C 74.18 69.93 70.43 68.27 67.71 65.58 C 64.99 62.89 63.32 59.18 63.31 55.08 C 63.31 50.98 64.99 47.27 67.71 44.58 C 70.43 41.89 74.18 40.23 78.33 40.23 C 82.48 40.23 86.23 41.89 88.95 44.58 C 91.67 47.27 93.35 50.98 93.35 55.08 L 94.02 55.08 Z " fill="rgb(205,206,205)"/>
      <path d=" M 77.55 0.19 C 64.62 0.19 51.33 1.11 43.86 3.47 C 40.97 4.65 37.85 7.09 34.56 10.52 C 31.27 13.96 27.81 18.39 24.23 23.56 L 24.17 23.65 L 24.09 23.58 C 23.49 23.04 22.44 22.51 21.12 22.03 C 19.8 21.55 18.22 21.12 16.54 20.76 C 13.19 20.03 9.5 19.58 6.88 19.58 L 6.88 19.58 C 6.09 19.58 5.41 19.62 4.86 19.7 C 4.31 19.78 3.9 19.92 3.67 20.08 C 3.52 20.19 3.46 20.3 3.45 20.43 L 3.45 20.43 L 3.45 20.44 L 3.45 20.45 C 3.44 20.55 3.43 20.66 3.43 20.77 C 3.43 21.66 3.87 22.87 4.61 24.02 C 5.28 25.06 6.21 26.05 7.27 26.73 C 6.69 25.75 6.36 24.88 6.36 24.14 C 6.36 23.69 6.48 23.28 6.75 22.94 C 7.01 22.6 7.42 22.32 7.96 22.11 L 7.96 22.11 L 7.96 22.11 C 8.33 21.99 8.82 21.93 9.4 21.93 C 10.94 21.93 13.12 22.31 15.18 22.88 C 17.24 23.45 19.17 24.2 20.21 24.97 L 20.31 25.04 L 16.2 28.33 L 16.16 28.33 C 15.71 28.3 15.26 28.29 14.81 28.29 C 11.21 28.29 7.85 29.23 5.28 30.63 C 2.71 32.04 0.96 33.92 0.55 35.78 C 0.27 37.16 0.14 38.84 0.14 40.73 C 0.14 48.96 2.58 61.08 5.18 69.62 L 13.15 75.38 L 10.91 61.01 L 11.14 61.31 C 12.6 63.23 16.23 65.18 21.1 67.01 C 25.97 68.84 32.07 70.54 38.49 72.01 C 51.33 74.94 65.42 76.89 73.39 76.89 L 73.39 76.89 C 74.22 76.89 74.99 76.87 75.68 76.82 C 70.76 76.67 61.66 75.12 51.57 72.69 C 40.95 70.13 29.23 66.61 20.14 62.73 C 14.21 60.19 9.39 57.51 6.73 54.83 C 6.75 60.73 9.2 66.98 12.1 73.3 L 12.28 73.68 L 6.78 69.09 L 6.77 69.07 C 4.46 63.14 2.55 56.58 2.55 47.12 C 2.55 45.28 2.62 43.32 2.78 41.24 L 2.78 41.24 L 2.78 41.24 C 3.66 35.5 7.3 32.71 10.17 32.71 L 10.17 32.71 C 10.93 32.71 11.63 32.91 12.22 33.3 L 12.28 33.34 L 12.25 33.41 C 11.61 35.1 11.33 36.77 11.33 38.38 C 11.33 41.58 12.4 44.56 13.79 47.03 C 15.18 49.5 16.9 51.44 18.18 52.56 L 18.18 52.56 C 22.92 56.74 28.63 59.36 34.7 61.42 C 31.15 59.41 26.77 57.07 23.18 54 C 19.3 50.69 16.33 46.51 16.33 40.96 C 16.33 39.86 16.45 38.72 16.69 37.51 L 16.74 37.26 L 16.86 37.48 C 22.66 47.85 34.86 59.14 51.57 64.95 C 49.93 63.36 48.44 61.63 47.12 59.77 C 33.86 52.38 23.32 41.66 18.91 31.65 L 18.87 31.56 L 26.52 28.13 L 37.51 35.94 L 34.62 32.18 L 34.8 32.17 C 51.99 31.02 68.47 30.35 83.96 30.35 C 96.31 30.35 108.03 30.78 118.96 31.74 L 119.1 31.75 L 117.26 35.25 L 125.75 29.56 L 125.75 29.56 C 126.56 29.05 127.44 28.84 128.37 28.84 L 128.37 28.84 C 130.71 28.84 133.34 30.2 136.02 31.75 L 136.09 31.79 L 136.07 31.86 C 132.84 41.68 122.32 55.03 105.71 62.77 C 104.82 63.78 103.88 64.74 102.89 65.65 C 122.04 59.89 133.23 47.32 138.55 36.82 L 138.67 36.57 L 138.72 36.84 C 138.99 38.21 139.12 39.51 139.12 40.74 C 139.12 46.23 136.58 50.34 132.76 53.6 C 129.15 56.7 124.39 59.04 119.57 61.11 C 123.36 60.37 127.34 59.16 130.92 57.42 C 134.77 55.56 138.15 53.08 140.32 49.93 C 142.49 46.14 143.56 42.44 143.56 38.82 C 143.56 36.76 143.21 34.73 142.52 32.73 L 142.48 32.61 L 142.61 32.61 C 142.67 32.61 142.73 32.61 142.79 32.61 L 142.79 32.61 C 144.75 32.61 146.36 33.06 147.68 33.86 C 149 34.66 150.01 35.82 150.78 37.22 C 152.32 40.04 152.87 43.86 152.87 47.96 C 152.87 56.08 150.68 65.28 149.55 69.71 L 149.54 69.74 L 142.09 75.73 L 142.3 75.33 C 143.98 72.09 146.84 64.19 148.16 59.05 C 148.6 57.34 148.87 55.93 148.87 55.11 C 148.87 54.93 148.86 54.78 148.83 54.67 C 148.82 54.61 148.8 54.56 148.79 54.53 C 146.97 56.5 143.86 58.49 139.9 60.44 C 135.89 62.42 131.01 64.36 125.76 66.17 C 115.25 69.79 103.23 72.89 93.57 74.8 C 87.24 76.05 81.93 76.78 78.71 76.81 C 79.52 76.92 80.53 76.98 81.71 76.98 L 81.72 76.98 C 92.55 76.98 117.36 72.39 132.46 67.29 C 137.49 65.59 141.45 63.83 143.44 62.18 L 143.54 62.1 L 143.59 62.22 C 143.95 63.17 144.1 64.25 144.1 65.42 C 144.1 68.59 142.98 72.46 141.69 76.45 L 151.16 69.64 C 151.18 69.57 151.24 69.38 151.32 69.08 C 151.43 68.7 151.58 68.13 151.77 67.42 C 152.14 66 152.64 63.98 153.13 61.61 C 154.12 56.87 155.11 50.71 155.11 45.03 C 155.11 41.32 154.69 37.82 153.57 35.07 C 152.45 32.31 150.66 30.3 147.89 29.53 L 147.92 29.44 L 147.89 29.53 L 147.89 29.53 C 145.96 28.93 143.39 28.34 139.77 28.34 C 139.47 28.34 139.17 28.34 138.86 28.35 L 138.83 28.35 L 134.7 25.49 L 134.83 25.42 C 136.5 24.42 138.68 23.44 140.79 22.71 C 142.9 21.98 144.93 21.51 146.28 21.51 C 146.62 21.51 146.92 21.54 147.18 21.61 C 147.43 21.68 147.63 21.78 147.77 21.94 L 147.77 21.94 L 147.77 21.94 C 148.26 22.63 148.48 23.26 148.48 23.85 C 148.48 24.4 148.29 24.91 147.96 25.37 C 147.7 25.74 147.37 26.08 146.98 26.41 C 149.6 25.72 151.31 23.64 151.8 20.9 C 151.8 20.88 151.8 20.86 151.8 20.84 C 151.8 20.66 151.73 20.52 151.58 20.38 C 151.43 20.25 151.21 20.13 150.91 20.04 C 150.32 19.86 149.46 19.77 148.42 19.77 L 148.41 19.77 L 148.4 19.77 C 143.71 19.77 135.42 21.5 131.36 23.39 L 131.29 23.43 L 131.24 23.36 C 125.13 13.99 120.27 8.36 112.25 3.48 C 111.89 3.26 111.32 3.03 110.58 2.82 C 109.84 2.61 108.92 2.4 107.85 2.2 C 105.72 1.81 102.98 1.45 99.83 1.16 C 93.53 0.57 85.57 0.21 77.48 0.21 L 77.55 0.21 L 77.55 0.19 Z  M 80.05 29.51 C 65.24 29.51 50.13 29.1 34.76 28.33 L 34.74 28.33 L 28.15 25.38 L 28.19 25.29 C 31.99 17.46 37.16 11.02 44.44 6.73 L 44.47 6.71 L 44.5 6.71 C 55.11 7.5 65.77 7.88 76.46 7.88 C 87.43 7.88 98.45 7.48 109.5 6.71 L 109.53 6.71 L 109.56 6.72 C 117.23 10.94 123.25 17.01 127.29 25.29 L 127.33 25.37 L 121.64 28.31 L 121.62 28.32 L 121.6 28.32 C 108.05 29.13 94.19 29.51 80.05 29.51 Z " fill="rgb(204,209,212)"/>
      <path d=" M 77.57 0 C 64.62 0 51.32 0.92 43.81 3.29 L 43.81 3.29 L 43.81 3.29 C 40.88 4.49 37.74 6.94 34.44 10.39 C 31.16 13.82 27.71 18.23 24.15 23.36 C 23.51 22.82 22.48 22.31 21.2 21.85 C 17.21 20.4 10.85 19.39 6.9 19.39 C 5.84 19.39 4.96 19.46 4.33 19.62 C 4.01 19.7 3.76 19.8 3.58 19.93 C 3.4 20.06 3.29 20.23 3.29 20.44 L 3.29 20.44 C 3.28 20.55 3.27 20.66 3.27 20.77 C 3.27 21.72 3.72 22.95 4.48 24.12 C 5.24 25.29 6.3 26.4 7.54 27.09 L 7.87 27.27 L 7.67 26.95 C 6.97 25.86 6.58 24.89 6.58 24.12 C 6.58 23.7 6.69 23.34 6.93 23.04 C 7.17 22.73 7.54 22.47 8.06 22.28 C 8.39 22.17 8.87 22.11 9.43 22.11 L 9.43 22.11 L 9.43 22.11 C 10.94 22.11 13.11 22.49 15.15 23.05 C 17.13 23.59 18.99 24.32 20.02 25.04 L 16.17 28.13 C 15.73 28.1 15.28 28.09 14.85 28.09 C 11.22 28.09 7.83 29.03 5.23 30.46 C 2.64 31.89 0.84 33.79 0.41 35.74 L 0.41 35.74 L 0.41 35.74 C 0.12 37.14 0 38.83 0 40.73 C 0 49 2.45 61.15 5.06 69.7 L 5.07 69.73 L 13.46 75.79 L 11.27 61.69 C 12.9 63.58 16.43 65.43 21.09 67.18 C 35.73 72.67 61.46 77.06 73.45 77.06 C 75.19 77.06 76.64 76.97 77.73 76.77 C 78.67 77.03 80.06 77.15 81.82 77.15 C 89.07 77.15 102.5 75.11 115.14 72.24 C 121.46 70.8 127.58 69.16 132.62 67.45 C 137.58 65.78 141.5 64.05 143.56 62.39 C 143.88 63.28 144.01 64.3 144.01 65.4 C 144.01 68.6 142.85 72.57 141.52 76.64 L 141.43 76.92 L 151.42 69.73 L 151.43 69.7 C 151.43 69.7 155.4 56.4 155.4 45.01 C 155.4 41.29 154.98 37.77 153.85 34.98 C 152.72 32.19 150.88 30.12 148.05 29.33 C 146.1 28.72 143.51 28.13 139.87 28.13 L 139.87 28.13 C 139.58 28.13 139.28 28.13 138.98 28.14 L 135.15 25.48 C 136.78 24.51 138.91 23.57 140.95 22.87 C 143.05 22.15 145.07 21.68 146.38 21.68 L 146.38 21.68 L 146.38 21.68 C 146.71 21.68 147 21.71 147.23 21.77 C 147.46 21.83 147.62 21.92 147.73 22.04 C 148.2 22.7 148.4 23.29 148.4 23.83 C 148.4 24.33 148.22 24.8 147.92 25.24 C 147.61 25.68 147.17 26.1 146.65 26.5 L 146.32 26.75 L 146.73 26.67 C 149.66 26.08 151.58 23.85 152.11 20.91 L 152.11 20.91 L 152.11 20.91 C 152.11 20.88 152.11 20.86 152.11 20.84 C 152.11 20.61 152.01 20.4 151.83 20.24 C 151.56 20 151.13 19.84 150.57 19.73 C 150.01 19.63 149.32 19.58 148.53 19.58 C 143.82 19.58 135.61 21.29 131.48 23.19 C 125.39 13.86 120.51 8.2 112.48 3.32 L 112.48 3.32 C 112.09 3.08 111.51 2.86 110.76 2.64 C 108.14 1.88 103.4 1.23 97.54 0.76 C 91.64 0.28 84.66 0 77.57 0 Z  M 43.87 3.47 C 51.34 1.11 64.63 0.19 77.56 0.19 L 77.57 0.19 C 85.67 0.19 93.62 0.55 99.92 1.14 C 103.07 1.43 105.81 1.79 107.94 2.18 C 109.01 2.38 109.93 2.58 110.67 2.8 C 111.41 3.01 111.98 3.24 112.34 3.46 C 120.36 8.34 125.22 13.97 131.33 23.34 L 131.37 23.41 L 131.45 23.38 C 135.51 21.49 143.8 19.75 148.49 19.75 L 148.5 19.75 L 148.51 19.75 C 149.55 19.75 150.41 19.84 151 20.02 C 151.3 20.11 151.52 20.23 151.67 20.36 C 151.82 20.5 151.89 20.64 151.89 20.82 C 151.89 20.84 151.89 20.85 151.89 20.87 C 151.39 23.61 149.68 25.69 147.07 26.38 C 147.46 26.05 147.8 25.71 148.05 25.35 C 148.37 24.89 148.57 24.38 148.57 23.83 C 148.57 23.24 148.35 22.61 147.86 21.92 L 147.86 21.92 L 147.86 21.92 C 147.72 21.77 147.52 21.66 147.27 21.59 C 147.02 21.52 146.72 21.49 146.37 21.49 C 145.02 21.49 142.99 21.97 140.88 22.69 C 138.77 23.42 136.58 24.39 134.92 25.39 L 134.79 25.47 L 138.92 28.33 L 138.95 28.33 C 139.26 28.32 139.57 28.32 139.87 28.32 C 143.49 28.32 146.06 28.91 147.99 29.51 L 147.99 29.51 L 147.99 29.51 L 148.02 29.42 L 147.99 29.51 C 150.75 30.28 152.55 32.29 153.67 35.05 C 154.79 37.81 155.21 41.31 155.21 45.01 C 155.21 50.69 154.22 56.85 153.23 61.59 C 152.74 63.96 152.24 65.98 151.87 67.4 C 151.68 68.11 151.53 68.67 151.42 69.06 C 151.34 69.36 151.28 69.55 151.26 69.62 L 141.79 76.43 C 143.08 72.45 144.2 68.58 144.2 65.4 C 144.2 64.23 144.05 63.15 143.69 62.2 L 143.64 62.08 L 143.54 62.17 C 141.55 63.82 137.59 65.58 132.56 67.28 C 117.46 72.38 92.65 76.97 81.82 76.97 L 81.81 76.97 C 80.63 76.97 79.62 76.92 78.81 76.8 C 82.03 76.77 87.35 76.04 93.67 74.79 C 103.33 72.88 115.35 69.78 125.86 66.16 C 131.11 64.35 135.99 62.41 140 60.43 C 143.95 58.48 147.06 56.49 148.88 54.52 C 148.9 54.56 148.91 54.61 148.92 54.66 C 148.94 54.77 148.96 54.92 148.96 55.1 C 148.96 55.92 148.69 57.33 148.25 59.04 C 146.93 64.18 144.07 72.07 142.39 75.32 L 142.18 75.72 L 149.63 69.73 L 149.64 69.7 C 150.77 65.27 152.96 56.08 152.96 47.95 C 152.96 43.85 152.41 40.03 150.87 37.21 C 150.1 35.8 149.08 34.65 147.77 33.85 C 146.45 33.05 144.84 32.6 142.88 32.6 L 142.88 32.6 C 142.82 32.6 142.76 32.6 142.7 32.6 L 142.57 32.6 L 142.61 32.72 C 143.3 34.72 143.65 36.76 143.65 38.81 C 143.65 42.43 142.58 46.13 140.41 49.92 C 138.24 53.07 134.86 55.54 131.01 57.41 C 127.43 59.14 123.45 60.35 119.66 61.09 C 124.49 59.02 129.24 56.67 132.85 53.58 C 136.66 50.32 139.21 46.2 139.21 40.72 C 139.21 39.49 139.08 38.2 138.81 36.82 L 138.76 36.55 L 138.64 36.8 C 133.32 47.31 122.12 59.88 102.98 65.63 C 103.97 64.72 104.92 63.76 105.8 62.75 C 122.41 55.01 132.93 41.65 136.16 31.84 L 136.18 31.77 L 136.11 31.73 C 133.43 30.18 130.8 28.82 128.46 28.82 L 128.46 28.82 C 127.53 28.82 126.65 29.04 125.84 29.54 L 117.35 35.23 L 119.19 31.73 L 119.05 31.72 C 108.11 30.76 96.4 30.33 84.05 30.33 C 68.56 30.33 52.07 31 34.89 32.15 L 34.71 32.16 L 37.6 35.92 L 26.61 28.11 L 18.96 31.54 L 19 31.63 C 23.42 41.63 33.96 52.36 47.21 59.75 C 48.53 61.61 50.02 63.34 51.66 64.93 C 34.95 59.12 22.75 47.83 16.95 37.46 L 16.83 37.24 L 16.78 37.49 C 16.53 38.69 16.42 39.84 16.42 40.94 C 16.42 46.49 19.39 50.67 23.26 53.98 C 26.85 57.05 31.22 59.38 34.78 61.39 C 28.71 59.33 23 56.71 18.26 52.53 L 18.26 52.53 C 16.98 51.41 15.26 49.47 13.87 47 C 12.47 44.53 11.4 41.55 11.4 38.35 C 11.4 36.74 11.67 35.07 12.32 33.38 L 12.35 33.31 L 12.29 33.27 C 11.71 32.88 11 32.68 10.24 32.68 L 10.24 32.68 C 7.37 32.68 3.73 35.47 2.85 41.21 L 2.85 41.21 L 2.85 41.21 C 2.69 43.29 2.62 45.25 2.62 47.09 C 2.62 56.55 4.52 63.11 6.83 69.04 L 6.84 69.06 L 12.34 73.65 L 12.16 73.27 C 9.25 66.95 6.81 60.7 6.79 54.8 C 9.45 57.48 14.27 60.16 20.2 62.7 C 29.29 66.58 41 70.11 51.62 72.66 C 61.71 75.09 70.81 76.64 75.73 76.79 C 75.04 76.83 74.27 76.86 73.44 76.86 L 73.44 76.86 C 65.48 76.86 51.38 74.91 38.54 71.98 C 32.12 70.52 26.01 68.81 21.15 66.98 C 16.28 65.16 12.65 63.2 11.19 61.28 L 10.96 60.98 L 13.2 75.35 L 5.23 69.59 C 2.62 61.05 0.19 48.93 0.19 40.7 C 0.19 38.82 0.32 37.14 0.6 35.75 C 1 33.89 2.76 32.01 5.33 30.6 C 7.89 29.19 11.26 28.25 14.85 28.25 C 15.3 28.25 15.75 28.26 16.2 28.29 L 16.24 28.29 L 20.35 24.99 L 20.25 24.92 C 19.2 24.15 17.28 23.4 15.22 22.83 C 13.16 22.26 10.98 21.88 9.44 21.88 C 8.86 21.88 8.37 21.93 8 22.06 L 8 22.06 L 8 22.06 C 7.45 22.27 7.05 22.54 6.78 22.89 C 6.51 23.23 6.39 23.64 6.39 24.09 C 6.39 24.84 6.72 25.71 7.3 26.69 C 6.24 26.01 5.31 25.02 4.64 23.98 C 3.9 22.84 3.46 21.63 3.46 20.73 C 3.46 20.62 3.47 20.51 3.48 20.41 L 3.48 20.4 L 3.48 20.39 L 3.48 20.38 C 3.48 20.25 3.54 20.14 3.7 20.03 C 3.92 19.87 4.34 19.74 4.89 19.65 C 5.44 19.57 6.13 19.53 6.91 19.53 L 6.91 19.53 C 9.53 19.53 13.23 19.98 16.57 20.71 C 18.24 21.07 19.83 21.5 21.15 21.98 C 22.47 22.46 23.52 22.99 24.11 23.53 L 24.19 23.6 L 24.25 23.51 C 27.83 18.34 31.29 13.91 34.58 10.47 C 37.85 7.09 40.97 4.65 43.87 3.47 Z  M 19.19 31.65 L 26.57 28.34 L 38.51 36.82 L 35.06 32.34 C 52.18 31.2 68.6 30.53 84.03 30.53 C 96.32 30.53 107.98 30.96 118.87 31.9 L 116.82 35.81 L 125.93 29.71 C 126.71 29.22 127.55 29.02 128.45 29.02 L 128.46 29.02 C 130.7 29.02 133.29 30.33 135.94 31.87 C 132.71 41.62 122.22 54.91 105.69 62.61 L 105.67 62.62 L 105.66 62.63 C 104.68 63.74 103.63 64.8 102.53 65.79 L 102.22 66.07 L 102.62 65.95 C 121.91 60.28 133.24 47.72 138.67 37.15 C 138.9 38.41 139.01 39.6 139.01 40.74 C 139.01 46.17 136.5 50.21 132.72 53.46 C 128.93 56.7 123.87 59.13 118.77 61.28 L 117.98 61.61 L 118.82 61.46 C 122.87 60.73 127.21 59.47 131.08 57.6 C 134.95 55.72 138.36 53.24 140.56 50.04 L 140.56 50.04 L 140.56 50.04 C 142.74 46.23 143.82 42.49 143.82 38.83 C 143.82 36.79 143.48 34.78 142.82 32.8 C 142.84 32.8 142.85 32.8 142.87 32.8 C 144.8 32.8 146.37 33.24 147.66 34.02 C 149.58 35.19 150.86 37.14 151.66 39.57 C 152.46 42 152.77 44.9 152.77 47.96 C 152.77 56.03 150.6 65.19 149.47 69.63 L 142.76 75.02 C 143.88 72.75 145.41 68.77 146.7 64.89 C 147.38 62.84 147.99 60.81 148.44 59.09 C 148.88 57.37 149.15 55.95 149.15 55.1 C 149.15 54.91 149.14 54.75 149.11 54.62 C 149.08 54.49 149.04 54.38 148.96 54.3 L 148.89 54.22 L 148.82 54.3 C 146.45 56.92 141.67 59.64 135.64 62.22 C 126.59 66.1 114.72 69.7 103.93 72.33 C 93.13 74.96 83.4 76.61 78.63 76.61 C 78.31 76.61 78.01 76.6 77.73 76.59 L 76.86 76.54 L 77.15 76.62 C 76.94 76.63 76.71 76.63 76.47 76.63 L 76.47 76.63 C 73.35 76.63 68.08 75.93 61.77 74.7 C 52.3 72.86 40.49 69.85 30.08 66.27 C 24.86 64.48 20 62.56 15.96 60.57 C 11.92 58.58 8.69 56.53 6.75 54.51 L 6.59 54.34 L 6.59 54.57 C 6.59 54.62 6.59 54.67 6.59 54.72 C 6.59 60.58 8.96 66.75 11.81 72.98 L 6.99 68.96 C 4.69 63.05 2.8 56.53 2.8 47.1 C 2.8 45.26 2.87 43.31 3.03 41.24 C 3.9 35.57 7.48 32.88 10.23 32.88 L 10.23 32.88 C 10.93 32.88 11.57 33.05 12.11 33.4 C 11.48 35.08 11.21 36.75 11.21 38.37 C 11.21 41.61 12.29 44.63 13.7 47.11 C 15.11 49.59 16.83 51.56 18.14 52.69 L 18.14 52.69 C 23.14 57.11 29.22 59.78 35.64 61.9 L 36.52 62.19 L 35.72 61.73 C 32.03 59.6 27.24 57.15 23.39 53.85 C 19.53 50.55 16.61 46.43 16.61 40.95 C 16.61 39.94 16.71 38.89 16.92 37.79 C 22.84 48.23 35.17 59.52 52.02 65.27 L 52.43 65.41 L 52.11 65.11 C 50.35 63.45 48.76 61.62 47.35 59.64 L 47.34 59.62 L 47.32 59.61 C 34.1 52.26 23.6 41.58 19.19 31.65 Z  M 44.47 6.71 L 44.44 6.72 C 37.16 11.02 31.98 17.45 28.18 25.28 L 28.14 25.37 L 34.73 28.32 L 34.75 28.32 C 50.12 29.09 65.23 29.5 80.04 29.5 C 94.18 29.5 108.04 29.12 121.6 28.32 L 121.62 28.32 L 121.64 28.31 L 127.32 25.36 L 127.28 25.28 C 123.24 17 117.22 10.93 109.55 6.71 L 109.52 6.7 L 109.49 6.7 C 98.44 7.47 87.42 7.87 76.45 7.87 C 65.76 7.87 55.1 7.49 44.49 6.7 L 44.47 6.71 Z  M 76.47 8.07 C 87.44 8.07 98.45 7.67 109.5 6.91 C 117.1 11.1 123.07 17.11 127.09 25.3 L 121.59 28.15 C 108.05 28.95 94.19 29.33 80.06 29.33 C 65.26 29.33 50.16 28.92 34.8 28.15 L 28.42 25.3 C 32.2 17.54 37.33 11.18 44.53 6.92 C 55.13 7.69 65.78 8.07 76.47 8.07 Z " fill="rgb(204,209,212)"/>
    </g>
    <g>
      <path d=" M 88.8 66.67 L 92.88 66.67 L 87.87 42.46 L 85.18 47.46 L 88.8 66.67 Z " fill="rgb(205,206,205)"/>
      <path d=" M 88.8 66.67 L 88.8 66.86 L 93.11 66.86 L 87.95 41.9 L 84.98 47.43 L 88.65 66.86 L 88.8 66.86 L 88.8 66.67 L 88.99 66.64 L 85.38 47.5 L 87.79 43.01 L 92.64 66.48 L 88.8 66.48 L 88.8 66.67 L 88.99 66.64 L 88.8 66.67 Z " fill="rgb(255,255,255)"/>
      <path d=" M 84.25 49.19 L 78.46 59.96 L 72.84 49.15 L 71.63 54.71 L 78.39 67.71 L 85.34 54.72 L 84.25 49.19 Z " fill="rgb(227,6,19)"/>
      <path d=" M 69.37 42.46 L 63.8 66.67 L 67.91 66.67 L 71.95 47.42 L 69.37 42.46 Z " fill="rgb(205,206,205)"/>
      <path d=" M 69.37 42.46 L 69.18 42.41 L 63.56 66.86 L 68.06 66.86 L 72.15 47.4 L 69.3 41.91 L 69.18 42.41 L 69.37 42.46 L 69.2 42.54 L 71.75 47.45 L 67.76 66.48 L 64.04 66.48 L 69.55 42.5 L 69.37 42.46 L 69.2 42.54 L 69.37 42.46 Z " fill="rgb(255,255,255)"/>
    </g>
  </g>
</svg>