<svg width="40" height="39" viewBox="0 0 40 39" fill="none" xmlns="http://www.w3.org/2000/svg">
<path fill-rule="evenodd" clip-rule="evenodd" d="M11.306 5.44049C10.4192 5.6498 9.60811 6.0917 8.96049 6.71831C8.31288 7.34493 7.85346 8.13237 7.632 8.99534L5.372 17.8152C4.38785 18.1459 3.53405 18.7678 2.92961 19.5941C2.32517 20.4204 2.0002 21.41 2 22.425V28.275C2 29.5679 2.52678 30.8079 3.46447 31.7221C4.40215 32.6364 5.67392 33.15 7 33.15H33C34.3261 33.15 35.5979 32.6364 36.5355 31.7221C37.4732 30.8079 38 29.5679 38 28.275V22.425C37.9999 21.4103 37.6753 20.4209 37.0712 19.5946C36.4671 18.7683 35.6138 18.1463 34.63 17.8152L32.368 8.99534C32.1467 8.13261 31.6876 7.34534 31.0403 6.71875C30.3931 6.09215 29.5824 5.65012 28.696 5.44049C25.8496 4.76158 22.9303 4.41659 20 4.41284C17.1 4.41284 14.2 4.75604 11.304 5.44049H11.306ZM7 21.45C7.44612 21.4499 7.8794 21.3043 8.23092 21.0365C8.58245 20.7687 8.83204 20.3939 8.94 19.9719L11.512 9.94109C11.5563 9.76821 11.6483 9.61045 11.778 9.48497C11.9078 9.35949 12.0703 9.27108 12.248 9.22934C14.7854 8.62416 17.3878 8.31649 20 8.31284C22.6122 8.31628 25.2147 8.62396 27.752 9.22934C27.9293 9.27139 28.0914 9.35995 28.2208 9.48541C28.3502 9.61087 28.4419 9.76845 28.486 9.94109L31.058 19.9719C31.166 20.3939 31.4156 20.7687 31.7671 21.0365C32.1186 21.3043 32.5519 21.4499 32.998 21.45C33.2632 21.45 33.5176 21.5527 33.7051 21.7356C33.8926 21.9184 33.998 22.1664 33.998 22.425V28.275C33.998 28.5336 33.8926 28.7816 33.7051 28.9644C33.5176 29.1473 33.2632 29.25 32.998 29.25H6.998C6.73278 29.25 6.47843 29.1473 6.29089 28.9644C6.10336 28.7816 5.998 28.5336 5.998 28.275V22.425C5.998 22.1664 6.10336 21.9184 6.29089 21.7356C6.47843 21.5527 6.73278 21.45 6.998 21.45H7Z" fill="black" fill-opacity="0.3"/>
<path d="M33 25.35C33 26.1257 32.6839 26.8697 32.1213 27.4183C31.5587 27.9668 30.7956 28.275 30 28.275C29.2044 28.275 28.4413 27.9668 27.8787 27.4183C27.3161 26.8697 27 26.1257 27 25.35C27 24.5742 27.3161 23.8302 27.8787 23.2817C28.4413 22.7332 29.2044 22.425 30 22.425C30.7956 22.425 31.5587 22.7332 32.1213 23.2817C32.6839 23.8302 33 24.5742 33 25.35ZM13 25.35C13 26.1257 12.6839 26.8697 12.1213 27.4183C11.5587 27.9668 10.7956 28.275 10 28.275C9.20435 28.275 8.44129 27.9668 7.87868 27.4183C7.31607 26.8697 7 26.1257 7 25.35C7 24.5742 7.31607 23.8302 7.87868 23.2817C8.44129 22.7332 9.20435 22.425 10 22.425C10.7956 22.425 11.5587 22.7332 12.1213 23.2817C12.6839 23.8302 13 24.5742 13 25.35ZM8 30.225C8.79565 30.225 9.55871 30.5332 10.1213 31.0817C10.6839 31.6302 11 32.3742 11 33.15V35.1C11 35.8757 10.6839 36.6197 10.1213 37.1683C9.55871 37.7168 8.79565 38.025 8 38.025C7.20435 38.025 6.44129 37.7168 5.87868 37.1683C5.31607 36.6197 5 35.8757 5 35.1V33.15C5 32.3742 5.31607 31.6302 5.87868 31.0817C6.44129 30.5332 7.20435 30.225 8 30.225V30.225ZM32 30.225C32.7956 30.225 33.5587 30.5332 34.1213 31.0817C34.6839 31.6302 35 32.3742 35 33.15V35.1C35 35.8757 34.6839 36.6197 34.1213 37.1683C33.5587 37.7168 32.7956 38.025 32 38.025C31.2044 38.025 30.4413 37.7168 29.8787 37.1683C29.3161 36.6197 29 35.8757 29 35.1V33.15C29 32.3742 29.3161 31.6302 29.8787 31.0817C30.4413 30.5332 31.2044 30.225 32 30.225Z" fill="black" fill-opacity="0.3"/>
<path fill-rule="evenodd" clip-rule="evenodd" d="M24.39 9.75H15.61C14.6948 9.74973 13.8072 10.0555 13.0953 10.6161C12.3834 11.1768 11.8902 11.9586 11.698 12.831L10.84 16.731C10.7147 17.2998 10.7215 17.8887 10.8599 18.4546C10.9983 19.0206 11.2648 19.5491 11.6399 20.0016C12.015 20.454 12.4891 20.8189 13.0276 21.0696C13.5661 21.3202 14.1553 21.4502 14.752 21.45H25.248C25.8446 21.4502 26.4338 21.3203 26.9722 21.0696C27.5106 20.819 27.9847 20.454 28.3596 20.0015C28.7346 19.549 29.0009 19.0204 29.139 18.4545C29.2772 17.8886 29.2836 17.2997 29.158 16.731L28.3 12.831C28.1079 11.9589 27.615 11.1774 26.9035 10.6168C26.1919 10.0561 25.3048 9.75018 24.39 9.75V9.75ZM14.75 17.55L15.61 13.65H24.39L25.248 17.55H14.752H14.75Z" fill="black" fill-opacity="0.3"/>
</svg>
