
<svg width="40" height="40" viewBox="0 0 40 40" fill="none" xmlns="http://www.w3.org/2000/svg">
<path fill-rule="evenodd" clip-rule="evenodd" d="M20 40C25.3043 40 30.3914 37.8929 34.1421 34.1421C37.8929 30.3914 40 25.3043 40 20C40 14.6957 37.8929 9.60859 34.1421 5.85786C30.3914 2.10714 25.3043 0 20 0C14.6957 0 9.60859 2.10714 5.85786 5.85786C2.10714 9.60859 0 14.6957 0 20C0 25.3043 2.10714 30.3914 5.85786 34.1421C9.60859 37.8929 14.6957 40 20 40V40ZM16.995 13.625C18.275 11.95 19.8325 11.25 21.25 11.25C22.6675 11.25 24.225 11.95 25.505 13.625C25.8108 14.0083 26.2546 14.2565 26.7412 14.3164C27.2279 14.3764 27.7186 14.2434 28.1083 13.9459C28.4981 13.6483 28.7557 13.21 28.8262 12.7248C28.8966 12.2395 28.7741 11.746 28.485 11.35C26.5925 8.875 23.99 7.5 21.25 7.5C18.51 7.5 15.9075 8.875 14.015 11.35C13.178 12.4555 12.5231 13.6877 12.075 15H9.375C8.87772 15 8.40081 15.1975 8.04917 15.5492C7.69754 15.9008 7.5 16.3777 7.5 16.875C7.5 17.3723 7.69754 17.8492 8.04917 18.2008C8.40081 18.5525 8.87772 18.75 9.375 18.75H11.3C11.2341 19.582 11.2341 20.418 11.3 21.25H9.375C8.87772 21.25 8.40081 21.4475 8.04917 21.7992C7.69754 22.1508 7.5 22.6277 7.5 23.125C7.5 23.6223 7.69754 24.0992 8.04917 24.4508C8.40081 24.8025 8.87772 25 9.375 25H12.075C12.5233 26.3122 13.1782 27.5444 14.015 28.65C15.9075 31.125 18.51 32.5 21.25 32.5C23.99 32.5 26.5925 31.125 28.485 28.65C28.7741 28.254 28.8966 27.7605 28.8262 27.2752C28.7557 26.79 28.4981 26.3517 28.1083 26.0541C27.7186 25.7566 27.2279 25.6236 26.7412 25.6836C26.2546 25.7435 25.8108 25.9917 25.505 26.375C24.225 28.05 22.6675 28.75 21.25 28.75C19.8325 28.75 18.275 28.05 16.995 26.375C16.6673 25.9441 16.3802 25.4838 16.1375 25H20.625C21.1223 25 21.5992 24.8025 21.9508 24.4508C22.3025 24.0992 22.5 23.6223 22.5 23.125C22.5 22.6277 22.3025 22.1508 21.9508 21.7992C21.5992 21.4475 21.1223 21.25 20.625 21.25H15.065C14.9786 20.4189 14.9786 19.5811 15.065 18.75H20.625C21.1223 18.75 21.5992 18.5525 21.9508 18.2008C22.3025 17.8492 22.5 17.3723 22.5 16.875C22.5 16.3777 22.3025 15.9008 21.9508 15.5492C21.5992 15.1975 21.1223 15 20.625 15H16.1375C16.3825 14.5125 16.6675 14.05 16.995 13.625Z" fill="black" fill-opacity="0.3"/>
</svg>
