<svg width="40" height="40" viewBox="0 0 40 40" fill="none" xmlns="http://www.w3.org/2000/svg">
<path d="M37.544 22.31L34.808 14.102C34.4111 12.907 33.6477 11.8674 32.6262 11.131C31.6048 10.3946 30.3772 9.99888 29.118 10H10.882C9.62278 9.99888 8.39523 10.3946 7.37377 11.131C6.35231 11.8674 5.5889 12.907 5.192 14.102L2.456 22.31C1.7286 22.6146 1.10742 23.1274 0.670469 23.7839C0.233514 24.4404 0.000261325 25.2114 0 26V32C0 33.476 0.808 34.752 2 35.446V38C2 38.5304 2.21071 39.0391 2.58579 39.4142C2.96086 39.7893 3.46957 40 4 40H6C6.53043 40 7.03914 39.7893 7.41421 39.4142C7.78929 39.0391 8 38.5304 8 38V36H32V38C32 38.5304 32.2107 39.0391 32.5858 39.4142C32.9609 39.7893 33.4696 40 34 40H36C36.5304 40 37.0391 39.7893 37.4142 39.4142C37.7893 39.0391 38 38.5304 38 38V35.446C38.6068 35.098 39.1111 34.5963 39.4623 33.9913C39.8134 33.3863 39.9989 32.6995 40 32V26C40 24.338 38.986 22.916 37.544 22.31ZM10.882 14H29.116C29.5359 13.9999 29.9452 14.132 30.2859 14.3775C30.6266 14.6231 30.8813 14.9696 31.014 15.368L33.226 22H6.774L8.984 15.368C9.258 14.55 10.022 14 10.882 14V14ZM7 32C6.6059 31.9999 6.21569 31.9221 5.85164 31.7712C5.4876 31.6202 5.15684 31.3991 4.87827 31.1203C4.31566 30.5573 3.99973 29.7939 4 28.998C4.00027 28.2021 4.3167 27.4389 4.87968 26.8763C5.44266 26.3137 6.20609 25.9977 7.002 25.998C7.79791 25.9983 8.56113 26.3147 9.12373 26.8777C9.68634 27.4407 10.0023 28.2041 10.002 29C10.0017 29.7959 9.6853 30.5591 9.12232 31.1217C8.55934 31.6843 7.79591 32.0003 7 32V32ZM33 32C32.2041 31.9997 31.4409 31.6833 30.8783 31.1203C30.3157 30.5573 29.9997 29.7939 30 28.998C30.0003 28.2021 30.3167 27.4389 30.8797 26.8763C31.4427 26.3137 32.2061 25.9977 33.002 25.998C33.7979 25.9983 34.5611 26.3147 35.1237 26.8777C35.6863 27.4407 36.0023 28.2041 36.002 29C36.0017 29.7959 35.6853 30.5591 35.1223 31.1217C34.5593 31.6843 33.7959 32.0003 33 32V32ZM6.554 6C7.248 7.19 8.524 8 10 8C11.476 8 12.752 7.19 13.446 6H26.556C27.248 7.19 28.524 8 30 8C31.476 8 32.752 7.19 33.446 6H30V2H33.446C32.752 0.81 31.476 0 30 0C28.524 0 27.248 0.81 26.554 2H13.446C12.752 0.81 11.476 0 10 0C8.524 0 7.248 0.81 6.554 2H10V6H6.554Z" fill="black" fill-opacity="0.3"/>
</svg>
