<svg width="51" height="40" viewBox="0 0 51 40" fill="none" xmlns="http://www.w3.org/2000/svg">
<path d="M13.9512 0.625C13.428 0.625 12.9683 0.9375 12.7701 1.41406L10.4396 7.19531L4.40731 5.38281C3.90792 5.23438 3.3689 5.39844 3.0439 5.79687C2.7189 6.19531 2.67926 6.75 2.93292 7.19531L6.06402 12.5937L0.86402 16.125C0.435971 16.4141 0.229874 16.9297 0.348776 17.4297C0.467679 17.9297 0.879874 18.3047 1.38719 18.3828L7.62561 19.3359L7.1817 25.5469C7.14207 26.0547 7.42743 26.5391 7.89512 26.7578C8.3628 26.9766 8.91768 26.8984 9.30609 26.5547L12.1043 24.0156L12.8573 21.25L13.6817 18.2344C14.3158 15.8984 16.0994 14.1641 18.2713 13.4766L21.5213 8.85156C22.4171 7.57813 23.614 6.59375 24.9695 5.94531C24.9378 5.89844 24.9061 5.85156 24.8665 5.80469C24.5415 5.40625 24.0024 5.24219 23.503 5.39062L17.4628 7.19531L15.1323 1.41406C14.9341 0.9375 14.4744 0.625 13.9512 0.625ZM29.1469 12.6172L39.8957 15.4531C40.411 15.5938 40.7915 16.0312 40.8311 16.5625L41.1957 20.9766L25.2232 16.7578L27.7756 13.1172C28.0768 12.6797 28.6317 12.4844 29.1469 12.6172V12.6172ZM23.6061 10.2734L19.8091 15.6875C18.0969 15.9219 16.6146 17.1406 16.139 18.8906L15.3146 21.9062L13.9988 26.7344L13.3408 29.1484C12.9762 30.4844 13.7848 31.8516 15.1323 32.2109L16.361 32.5312C17.7165 32.8906 19.1037 32.0937 19.4683 30.7656L20.1262 28.3516L39.7293 33.5313L39.0713 35.9453C38.7067 37.2813 39.5152 38.6484 40.8628 39.0078L42.0915 39.3281C43.4469 39.6875 44.8341 38.8906 45.1988 37.5625L45.8567 35.1484L47.1646 30.3125L47.989 27.2969C48.4646 25.5469 47.7908 23.7656 46.4354 22.7109L45.8963 16.1484C45.6823 13.5156 43.8037 11.3047 41.2195 10.6172L30.4549 7.78906C27.8628 7.10156 25.1201 8.10156 23.5982 10.2734H23.6061ZM21.2677 24.125C20.253 23.8594 19.6506 22.8281 19.9201 21.8281C20.1896 20.8281 21.236 20.2344 22.2506 20.5C23.2652 20.7656 23.8677 21.7969 23.5982 22.7969C23.3287 23.7969 22.2823 24.3906 21.2677 24.125ZM43.2012 27.9766C42.9317 28.9766 41.8854 29.5703 40.8707 29.3047C39.8561 29.0391 39.2537 28.0078 39.5232 27.0078C39.7927 26.0078 40.839 25.4141 41.8537 25.6797C42.8683 25.9453 43.4707 26.9766 43.2012 27.9766Z" fill="black"/>
</svg>
