<?xml version="1.0" encoding="UTF-8" standalone="no"?><!-- Generator: Gravit.io --><svg xmlns="http://www.w3.org/2000/svg" xmlns:xlink="http://www.w3.org/1999/xlink" style="isolation:isolate" viewBox="0 0 34.7 34.36" width="34.7pt" height="34.36pt"><defs><clipPath id="_clipPath_rFcuOD2Wgl9JYhR8G6HdjtuUpAWlQ1i6"><rect width="34.7" height="34.36"/></clipPath></defs><g clip-path="url(#_clipPath_rFcuOD2Wgl9JYhR8G6HdjtuUpAWlQ1i6)"><g><path d=" M 31.36 17.18 C 31.35 13.5 29.88 9.97 27.26 7.39 C 24.62 4.79 21.05 3.33 17.34 3.33 C 13.63 3.33 10.06 4.79 7.42 7.39 C 4.8 9.97 3.33 13.5 3.32 17.18 C 3.33 20.86 4.81 24.38 7.42 26.97 C 10.06 29.57 13.63 31.03 17.34 31.03 C 21.05 31.03 24.62 29.57 27.26 26.97 C 29.88 24.39 31.35 20.86 31.36 17.18 Z  M 34.7 17.18 C 34.7 17.18 34.7 17.18 34.7 17.18 C 34.69 21.75 32.86 26.12 29.61 29.33 C 26.35 32.56 21.94 34.36 17.35 34.36 C 12.76 34.36 8.35 32.56 5.09 29.33 C 1.84 26.13 0 21.75 0 17.18 C 0.01 12.61 1.84 8.24 5.09 5.03 C 8.35 1.8 12.76 0 17.35 0 C 21.94 0 26.35 1.8 29.61 5.03 C 32.86 8.23 34.7 12.61 34.7 17.18 Z  M 34.5 17.39 C 34.43 21.83 32.63 26.07 29.47 29.19 C 26.24 32.38 21.89 34.16 17.35 34.16 C 12.82 34.16 8.46 32.38 5.23 29.19 C 2.01 26.02 0.2 21.69 0.2 17.18 C 0.21 12.67 2.02 8.34 5.23 5.17 C 8.46 1.98 12.81 0.2 17.35 0.2 C 21.89 0.2 26.24 1.98 29.47 5.17 C 32.63 8.29 34.44 12.53 34.5 16.97 C 34.5 17.04 34.5 17.32 34.5 17.39 Z  M 31.56 17 C 31.5 13.33 30.01 9.83 27.4 7.25 C 24.72 4.61 21.1 3.13 17.34 3.13 C 13.58 3.13 9.96 4.61 7.28 7.25 C 4.63 9.87 3.13 13.45 3.12 17.18 C 3.13 20.91 4.63 24.49 7.28 27.11 C 9.96 29.75 13.58 31.23 17.34 31.23 C 21.1 31.23 24.72 29.75 27.4 27.11 C 30.01 24.53 31.5 21.03 31.56 17.36 C 31.56 17.3 31.56 17.06 31.56 17 Z " fill-rule="evenodd" fill="rgb(0,0,0)"/><path d=" M 27.81 28.77 L 31.89 28.77 L 26.88 4.56 L 24.19 9.56 L 27.81 28.77 Z " fill="rgb(86,86,86)"/><path d=" M 27.81 28.77 L 27.81 28.96 L 32.12 28.96 L 26.96 4 L 23.99 9.53 L 27.66 28.96 L 27.81 28.96 L 27.81 28.77 L 28 28.74 L 24.39 9.6 L 26.8 5.11 L 31.65 28.58 L 27.81 28.58 L 27.81 28.77 L 28 28.74 L 27.81 28.77 Z " fill="rgb(255,255,255)"/><path d=" M 23.26 11.29 L 17.47 22.06 L 11.85 11.25 L 10.64 16.81 L 17.4 29.81 L 24.35 16.82 L 23.26 11.29 Z " fill="rgb(227,6,19)"/><path d=" M 8.38 4.56 L 2.81 28.77 L 6.92 28.77 L 10.96 9.52 L 8.38 4.56 Z " fill="rgb(86,86,86)"/><path d=" M 8.38 4.56 L 8.19 4.51 L 2.57 28.96 L 7.07 28.96 L 11.16 9.5 L 8.31 4.01 L 8.19 4.51 L 8.38 4.56 L 8.21 4.64 L 10.76 9.55 L 6.77 28.58 L 3.05 28.58 L 8.56 4.6 L 8.38 4.56 L 8.21 4.64 L 8.38 4.56 Z " fill="rgb(255,255,255)"/></g></g></svg>