<?xml version="1.0" encoding="UTF-8" standalone="no"?><!-- Generator: Gravit.io --><svg xmlns="http://www.w3.org/2000/svg" xmlns:xlink="http://www.w3.org/1999/xlink" style="isolation:isolate" viewBox="0 0 32.7 32.36" width="32.7pt" height="32.36pt"><defs><clipPath id="_clipPath_wPsIRJpQvrDQZLhZ3QGs3szcT1rqPJRV"><rect width="32.7" height="32.36"/></clipPath></defs><g clip-path="url(#_clipPath_wPsIRJpQvrDQZLhZ3QGs3szcT1rqPJRV)"><g><path d=" M 32.03 16.18 L 32.7 16.18 C 32.7 11.71 30.87 7.66 27.91 4.74 C 24.95 1.81 20.86 0 16.35 0 C 11.84 0 7.75 1.81 4.79 4.74 C 1.83 7.67 0 11.71 0 16.18 C 0 20.65 1.83 24.7 4.79 27.62 C 7.75 30.55 11.84 32.36 16.35 32.36 C 20.86 32.36 24.95 30.55 27.91 27.62 C 30.87 24.69 32.7 20.65 32.7 16.18 L 32.03 16.18 L 31.36 16.18 C 31.36 20.28 29.68 23.99 26.96 26.68 C 24.24 29.37 20.49 31.03 16.34 31.03 C 12.19 31.03 8.44 29.37 5.72 26.68 C 3 23.99 1.33 20.28 1.32 16.18 C 1.32 12.08 3 8.37 5.72 5.68 C 8.44 2.99 12.19 1.33 16.34 1.33 C 20.49 1.33 24.24 2.99 26.96 5.68 C 29.68 8.37 31.36 12.08 31.36 16.18 L 32.03 16.18 Z " fill="rgb(205,206,205)"/><path d=" M 26.81 27.77 L 30.89 27.77 L 25.88 3.56 L 23.19 8.56 L 26.81 27.77 Z " fill="rgb(205,206,205)"/><path d=" M 26.81 27.77 L 26.81 27.96 L 31.12 27.96 L 25.96 3 L 22.99 8.53 L 26.66 27.96 L 26.81 27.96 L 26.81 27.77 L 27 27.74 L 23.39 8.6 L 25.8 4.11 L 30.65 27.58 L 26.81 27.58 L 26.81 27.77 L 27 27.74 L 26.81 27.77 Z " fill="rgb(255,255,255)"/><path d=" M 22.26 10.29 L 16.47 21.06 L 10.85 10.25 L 9.64 15.81 L 16.4 28.81 L 23.35 15.82 L 22.26 10.29 Z " fill="rgb(227,6,19)"/><path d=" M 7.38 3.56 L 1.81 27.77 L 5.92 27.77 L 9.96 8.52 L 7.38 3.56 Z " fill="rgb(205,206,205)"/><path d=" M 7.38 3.56 L 7.19 3.51 L 1.57 27.96 L 6.07 27.96 L 10.16 8.5 L 7.31 3.01 L 7.19 3.51 L 7.38 3.56 L 7.21 3.64 L 9.76 8.55 L 5.77 27.58 L 2.05 27.58 L 7.56 3.6 L 7.38 3.56 L 7.21 3.64 L 7.38 3.56 Z " fill="rgb(255,255,255)"/></g></g></svg>